<svg viewBox="0 0 1512 982" fill="none" xmlns="http://www.w3.org/2000/svg">
  <g id="11">
    <path fill="#fff" d="M0 0h1512v982H0z"/>
    <path id="y" d="M948.768 515h9.792c-.64.213-1.109.597-1.408 1.152a3.719 3.719 0 0 0-.448 1.792c0 .341.213 1.088.64 2.24.427 1.109.981 2.453 1.664 4.032.683 1.536 1.429 3.2 2.24 4.992.811 1.792 1.579 3.499 2.304 5.12a806.548 806.548 0 0 1 2.048 4.352c.597 1.237 1.003 2.112 1.216 2.624.256-.512.64-1.365 1.152-2.56.555-1.195 1.173-2.56 1.856-4.096a175.144 175.144 0 0 0 2.176-4.8 121.828 121.828 0 0 0 2.048-4.672 73.348 73.348 0 0 0 1.472-3.84c.427-1.109.64-1.835.64-2.176 0-.981-.256-1.877-.768-2.688-.512-.811-1.28-1.301-2.304-1.472h9.792a6.373 6.373 0 0 0-3.264 1.6 9.107 9.107 0 0 0-2.176 2.944 1278.576 1278.576 0 0 0-8.64 19.328c-2.773 6.4-5.611 12.843-8.512 19.328a15.918 15.918 0 0 1-.896 1.664 8.35 8.35 0 0 1-1.216 1.536 5.514 5.514 0 0 1-1.472 1.152 3.848 3.848 0 0 1-1.856.448c-.597 0-1.152-.235-1.664-.704-.512-.427-.768-.939-.768-1.536 0-.725.213-1.259.64-1.6.469-.299 1.024-.448 1.664-.448.427 0 .875.021 1.344.064.512.043.981.021 1.408-.064a3.213 3.213 0 0 0 1.28-.384c.427-.171.747-.512.96-1.024l4.992-11.328-11.392-25.792c-.512-1.195-1.088-2.219-1.728-3.072-.64-.896-1.579-1.6-2.816-2.112Z" fill="#2B6B0C"/>
    <path id="r" d="M878.64 544c1.237-.384 2.048-1.045 2.432-1.984.427-.981.64-2.069.64-3.264V520c0-.341-.021-.725-.064-1.152a4.764 4.764 0 0 0-.32-1.344c-.128-.427-.341-.768-.64-1.024-.256-.299-.619-.448-1.088-.448l5.76-4.032v26.752c0 1.195.213 2.283.64 3.264.427.939 1.237 1.6 2.432 1.984h-9.792Zm12.8-28.864c-.811 0-1.6.171-2.368.512-.725.299-1.429.661-2.112 1.088l1.728-1.728a20.671 20.671 0 0 1 1.856-1.536 9.056 9.056 0 0 1 2.112-1.088 6.82 6.82 0 0 1 2.496-.448c.64 0 1.237.171 1.792.512.555.341.832.875.832 1.6 0 .725-.235 1.28-.704 1.664-.427.341-.981.512-1.664.512-.597 0-1.195-.171-1.792-.512-.597-.384-1.323-.576-2.176-.576Z" fill="#2B6B0C"/>
    <path id="r_2" d="M927.64 544c1.237-.384 2.048-1.045 2.432-1.984.427-.981.64-2.069.64-3.264V520c0-.341-.021-.725-.064-1.152a4.764 4.764 0 0 0-.32-1.344c-.128-.427-.341-.768-.64-1.024-.256-.299-.619-.448-1.088-.448l5.76-4.032v26.752c0 1.195.213 2.283.64 3.264.427.939 1.237 1.6 2.432 1.984h-9.792Zm12.8-28.864c-.811 0-1.6.171-2.368.512-.725.299-1.429.661-2.112 1.088l1.728-1.728a20.671 20.671 0 0 1 1.856-1.536 9.056 9.056 0 0 1 2.112-1.088 6.82 6.82 0 0 1 2.496-.448c.64 0 1.237.171 1.792.512.555.341.832.875.832 1.6 0 .725-.235 1.28-.704 1.664-.427.341-.981.512-1.664.512-.597 0-1.195-.171-1.792-.512-.597-.384-1.323-.576-2.176-.576Z" fill="#2B6B0C"/>
    <path id="i" d="M831.792 544c1.237-.384 2.048-1.045 2.432-1.984.427-.981.64-2.069.64-3.264V520c0-.341-.021-.725-.064-1.152a4.764 4.764 0 0 0-.32-1.344c-.128-.427-.341-.768-.64-1.024-.256-.299-.619-.448-1.088-.448l5.76-4.032v26.752c0 1.195.213 2.283.64 3.264.427.939 1.237 1.6 2.432 1.984h-9.792Zm4.672-42.24c.768 0 1.387.235 1.856.704.469.469.704 1.088.704 1.856s-.235 1.387-.704 1.856c-.469.469-1.088.704-1.856.704s-1.408-.235-1.92-.704c-.469-.469-.704-1.088-.704-1.856s.235-1.387.704-1.856c.512-.469 1.152-.704 1.92-.704Z" fill="#2B6B0C"/>
    <path id="b" d="M849.976 496.32v37.376c0 1.323.32 2.581.96 3.776a12.137 12.137 0 0 0 2.56 3.136c1.024.896 2.176 1.6 3.456 2.112 1.323.512 2.624.768 3.904.768 1.877 0 3.456-.512 4.736-1.536a12.8 12.8 0 0 0 3.136-3.904 18.623 18.623 0 0 0 1.728-5.056c.341-1.792.512-3.435.512-4.928 0-1.579-.192-3.243-.576-4.992-.341-1.749-.917-3.349-1.728-4.8a10.78 10.78 0 0 0-3.2-3.584c-1.28-.939-2.88-1.408-4.8-1.408-1.877 0-3.477.363-4.8 1.088-1.28.725-2.56 1.707-3.84 2.944a11.598 11.598 0 0 1 4.224-4.032c1.792-.981 3.691-1.472 5.696-1.472 2.176 0 4.075.427 5.696 1.28a11.357 11.357 0 0 1 4.032 3.328c1.109 1.408 1.92 3.029 2.432 4.864.555 1.792.832 3.691.832 5.696 0 2.304-.32 4.523-.96 6.656-.597 2.091-1.515 3.947-2.752 5.568-1.237 1.579-2.795 2.859-4.672 3.84-1.877.939-4.075 1.408-6.592 1.408-1.92 0-3.84-.448-5.76-1.344-1.877-.939-3.52-2.027-4.928-3.264l-2.88 4.416v-39.168c0-.384-.021-.811-.064-1.28a4.86 4.86 0 0 0-.32-1.408 2.753 2.753 0 0 0-.768-1.152c-.299-.299-.704-.448-1.216-.448l5.952-4.48Z" fill="#2B6B0C"/>
    <path id="l" d="M816.6 544c1.28-.469 2.133-1.195 2.56-2.176.469-.981.704-2.112.704-3.392v-33.6a7.24 7.24 0 0 0-.128-1.28 4.764 4.764 0 0 0-.32-1.344c-.128-.469-.341-.853-.64-1.152-.299-.299-.704-.448-1.216-.448l5.888-4.288.064 42.112c0 1.28.213 2.411.64 3.392.469.981 1.344 1.707 2.624 2.176H816.6Z" fill="#2B6B0C"/>
    <path id="d" d="M778.216 511.872c1.024 0 1.941.085 2.752.256a8.496 8.496 0 0 1 2.368.704 9.666 9.666 0 0 1 2.112 1.216 29.656 29.656 0 0 1 2.176 1.664v-10.304c0-.384-.021-.811-.064-1.28a4.86 4.86 0 0 0-.32-1.408 2.753 2.753 0 0 0-.768-1.152c-.299-.299-.704-.448-1.216-.448l5.952-4.544V536c0 .811.149 1.557.448 2.24.299.683.939 1.067 1.92 1.152l-5.952 4.48v-22.464a6.963 6.963 0 0 0-.896-3.456 10.419 10.419 0 0 0-2.304-2.816 11.002 11.002 0 0 0-3.2-1.92c-1.152-.469-2.304-.704-3.456-.704-1.835 0-3.435.491-4.8 1.472a12.604 12.604 0 0 0-3.456 3.584 17.902 17.902 0 0 0-2.048 4.8c-.427 1.749-.64 3.413-.64 4.992 0 1.536.213 3.2.64 4.992.427 1.792 1.067 3.435 1.92 4.928a13.09 13.09 0 0 0 3.392 3.776c1.365.981 2.965 1.472 4.8 1.472 1.792 0 3.307-.299 4.544-.896 1.237-.64 2.496-1.579 3.776-2.816-1.024 1.579-2.389 2.859-4.096 3.84a11.117 11.117 0 0 1-5.44 1.408c-2.091 0-3.968-.427-5.632-1.28a13.856 13.856 0 0 1-4.288-3.392 16.7 16.7 0 0 1-2.688-4.928 17.17 17.17 0 0 1-.96-5.696c0-2.261.341-4.416 1.024-6.464.725-2.048 1.749-3.84 3.072-5.376a15.195 15.195 0 0 1 4.864-3.648c1.92-.939 4.075-1.408 6.464-1.408Z" fill="#2B6B0C"/>
    <path id="n" d="M736.56 516.928c1.237-1.493 2.752-2.709 4.544-3.648 1.792-.981 3.691-1.472 5.696-1.472 1.621 0 2.987.32 4.096.96a7.775 7.775 0 0 1 2.816 2.432c.768 1.024 1.323 2.219 1.664 3.584a16.6 16.6 0 0 1 .512 4.16v15.488c0 1.28.235 2.432.704 3.456.469.981 1.344 1.685 2.624 2.112h-10.24c1.28-.427 2.133-1.152 2.56-2.176.469-1.024.704-2.155.704-3.392v-16.256c0-1.109-.128-2.197-.384-3.264-.213-1.067-.597-2.005-1.152-2.816a5.725 5.725 0 0 0-2.176-1.984c-.853-.512-1.92-.768-3.2-.768-1.621 0-3.179.363-4.672 1.088a19.852 19.852 0 0 0-4.096 2.496ZM727.6 544c1.28-.469 2.133-1.195 2.56-2.176.469-.981.704-2.112.704-3.392v-17.92a7.24 7.24 0 0 0-.128-1.28 4.764 4.764 0 0 0-.32-1.344c-.128-.469-.341-.853-.64-1.152-.299-.299-.704-.448-1.216-.448l5.888-4.288.064 26.432c0 1.28.213 2.411.64 3.392.469.981 1.344 1.707 2.624 2.176H727.6Z" fill="#2B6B0C"/>
    <path id="a" d="M698.216 537.216c0-1.707.405-3.136 1.216-4.288a9.72 9.72 0 0 1 3.072-2.816 17.674 17.674 0 0 1 4.096-1.728 47.385 47.385 0 0 1 4.352-1.152 72.508 72.508 0 0 0 3.776-.896c1.109-.299 1.899-.661 2.368-1.088v-3.584c0-1.024-.107-2.069-.32-3.136a8.953 8.953 0 0 0-1.088-2.88 6.464 6.464 0 0 0-2.048-2.112c-.811-.555-1.835-.832-3.072-.832-.555 0-1.216.085-1.984.256a9.265 9.265 0 0 0-2.112.64 5.059 5.059 0 0 0-1.728 1.216c-.469.469-.704 1.067-.704 1.792 0 .469.043.917.128 1.344.128.427.192.875.192 1.344 0 1.579-.811 2.368-2.432 2.368-.725 0-1.28-.235-1.664-.704-.384-.512-.576-1.109-.576-1.792 0-1.067.427-2.048 1.28-2.944.853-.896 1.877-1.664 3.072-2.304a18.662 18.662 0 0 1 3.776-1.472c1.323-.341 2.432-.512 3.328-.512 3.371 0 5.803.832 7.296 2.496 1.493 1.664 2.24 4.139 2.24 7.424v16.192c0 .981.192 1.899.576 2.752.427.811 1.216 1.216 2.368 1.216.939 0 1.771-.299 2.496-.896-.256.853-.875 1.579-1.856 2.176-.939.555-1.835.832-2.688.832-.939 0-1.707-.171-2.304-.512a3.87 3.87 0 0 1-1.408-1.344c-.299-.555-.512-1.195-.64-1.92a19.804 19.804 0 0 1-.128-2.304v-11.712a185.86 185.86 0 0 1-4.672 1.344 23.467 23.467 0 0 0-4.672 1.728 11.236 11.236 0 0 0-3.584 2.88c-.981 1.152-1.472 2.688-1.472 4.608 0 1.792.555 3.2 1.664 4.224s2.56 1.536 4.352 1.536c1.28 0 2.539-.171 3.776-.512a11.593 11.593 0 0 0 3.456-1.6c-1.323 1.323-2.752 2.261-4.288 2.816-1.536.512-3.243.768-5.12.768-1.067 0-2.112-.128-3.136-.384a8.84 8.84 0 0 1-2.624-1.28 7 7 0 0 1-1.856-2.176c-.469-.896-.704-1.92-.704-3.072Z" fill="#2B6B0C"/>
    <path id="a_2" d="M898.216 537.216c0-1.707.405-3.136 1.216-4.288a9.72 9.72 0 0 1 3.072-2.816 17.674 17.674 0 0 1 4.096-1.728 47.385 47.385 0 0 1 4.352-1.152 72.508 72.508 0 0 0 3.776-.896c1.109-.299 1.899-.661 2.368-1.088v-3.584c0-1.024-.107-2.069-.32-3.136a8.953 8.953 0 0 0-1.088-2.88 6.464 6.464 0 0 0-2.048-2.112c-.811-.555-1.835-.832-3.072-.832-.555 0-1.216.085-1.984.256a9.265 9.265 0 0 0-2.112.64 5.059 5.059 0 0 0-1.728 1.216c-.469.469-.704 1.067-.704 1.792 0 .469.043.917.128 1.344.128.427.192.875.192 1.344 0 1.579-.811 2.368-2.432 2.368-.725 0-1.28-.235-1.664-.704-.384-.512-.576-1.109-.576-1.792 0-1.067.427-2.048 1.28-2.944.853-.896 1.877-1.664 3.072-2.304a18.662 18.662 0 0 1 3.776-1.472c1.323-.341 2.432-.512 3.328-.512 3.371 0 5.803.832 7.296 2.496 1.493 1.664 2.24 4.139 2.24 7.424v16.192c0 .981.192 1.899.576 2.752.427.811 1.216 1.216 2.368 1.216.939 0 1.771-.299 2.496-.896-.256.853-.875 1.579-1.856 2.176-.939.555-1.835.832-2.688.832-.939 0-1.707-.171-2.304-.512a3.87 3.87 0 0 1-1.408-1.344c-.299-.555-.512-1.195-.64-1.92a19.804 19.804 0 0 1-.128-2.304v-11.712a185.86 185.86 0 0 1-4.672 1.344 23.467 23.467 0 0 0-4.672 1.728 11.236 11.236 0 0 0-3.584 2.88c-.981 1.152-1.472 2.688-1.472 4.608 0 1.792.555 3.2 1.664 4.224s2.56 1.536 4.352 1.536c1.28 0 2.539-.171 3.776-.512a11.593 11.593 0 0 0 3.456-1.6c-1.323 1.323-2.752 2.261-4.288 2.816-1.536.512-3.243.768-5.12.768-1.067 0-2.112-.128-3.136-.384a8.84 8.84 0 0 1-2.624-1.28 7 7 0 0 1-1.856-2.176c-.469-.896-.704-1.92-.704-3.072Z" fill="#2B6B0C"/>
    <path id="s" d="M671.176 534.784a14.771 14.771 0 0 0 4.416 6.144c2.005 1.621 4.352 2.432 7.04 2.432.896 0 1.899-.064 3.008-.192a11.59 11.59 0 0 0 3.072-.768c.981-.427 1.792-1.003 2.432-1.728.683-.768 1.024-1.749 1.024-2.944 0-1.365-.512-2.475-1.536-3.328-1.024-.896-2.304-1.685-3.84-2.368a49.391 49.391 0 0 0-4.928-1.92 34.192 34.192 0 0 1-4.928-2.112c-1.493-.811-2.752-1.792-3.776-2.944-1.024-1.195-1.536-2.688-1.536-4.48 0-1.493.299-2.795.896-3.904s1.365-2.027 2.304-2.752c.981-.768 2.112-1.344 3.392-1.728a13.515 13.515 0 0 1 3.904-.576c.64 0 1.451.064 2.432.192.981.128 1.984.32 3.008.576 1.067.213 2.091.448 3.072.704.981.256 1.749.512 2.304.768v6.016a9.814 9.814 0 0 0-1.728-3.136 9.94 9.94 0 0 0-2.624-2.368 12.21 12.21 0 0 0-3.264-1.6 10.872 10.872 0 0 0-3.456-.576c-.811 0-1.685.128-2.624.384a9.332 9.332 0 0 0-2.624 1.024 6.422 6.422 0 0 0-1.92 1.792c-.512.683-.768 1.515-.768 2.496 0 1.536.512 2.816 1.536 3.84 1.024.981 2.283 1.835 3.776 2.56 1.536.725 3.2 1.387 4.992 1.984a34.839 34.839 0 0 1 4.928 2.048c1.536.768 2.816 1.707 3.84 2.816 1.024 1.109 1.536 2.539 1.536 4.288 0 1.664-.341 3.072-1.024 4.224a8.309 8.309 0 0 1-2.56 2.752c-1.067.683-2.283 1.173-3.648 1.472a19.387 19.387 0 0 1-4.16.448c-1.877 0-3.904-.171-6.08-.512-2.133-.384-4.096-.853-5.888-1.408v-7.616Z" fill="#2B6B0C"/>
    <path id="k" d="M619.6 544c1.28-.469 2.133-1.195 2.56-2.176.469-.981.704-2.112.704-3.392v-33.6a7.24 7.24 0 0 0-.128-1.28 4.764 4.764 0 0 0-.32-1.344c-.128-.469-.341-.853-.64-1.152-.299-.299-.704-.448-1.216-.448l5.888-4.288.064 42.112c0 1.28.213 2.411.64 3.392.469.981 1.344 1.707 2.624 2.176H619.6Zm18.88-26.816c.341-.299.661-.747.96-1.344.299-.597.448-1.109.448-1.536 0-.597-.213-1.067-.64-1.408a4.344 4.344 0 0 0-1.28-.896h8.064a21.85 21.85 0 0 0-2.24 1.088c-.64.341-1.28.811-1.92 1.408L630.8 524.672l13.952 16c.725.853 1.515 1.536 2.368 2.048s1.813.939 2.88 1.28h-7.104l-15.04-17.28 10.624-9.536Z" fill="#2B6B0C"/>
    <path id="c" d="M607.368 512.128c1.067 0 2.219.149 3.456.448a12.82 12.82 0 0 1 3.584 1.28 7.87 7.87 0 0 1 2.752 2.24c.768.896 1.152 1.984 1.152 3.264 0 .64-.171 1.216-.512 1.728-.341.512-.875.768-1.6.768-.768 0-1.344-.277-1.728-.832a3.474 3.474 0 0 1-.512-1.856c0-.981-.213-1.856-.64-2.624a6.166 6.166 0 0 0-1.728-2.048 6.851 6.851 0 0 0-2.368-1.344 7.511 7.511 0 0 0-2.688-.512c-1.749 0-3.328.427-4.736 1.28a12.42 12.42 0 0 0-3.648 3.2 16.136 16.136 0 0 0-2.304 4.416c-.555 1.621-.832 3.221-.832 4.8 0 1.963.235 3.904.704 5.824.469 1.877 1.216 3.541 2.24 4.992a11.897 11.897 0 0 0 3.904 3.52c1.621.896 3.541 1.344 5.76 1.344 2.176 0 4.267-.469 6.272-1.408a15.969 15.969 0 0 0 5.184-3.84c-1.365 2.56-3.2 4.48-5.504 5.76-2.304 1.28-4.885 1.92-7.744 1.92-2.176 0-4.16-.427-5.952-1.28a15.468 15.468 0 0 1-4.672-3.392 16.415 16.415 0 0 1-3.008-4.992 17.814 17.814 0 0 1-1.024-6.016c0-2.432.384-4.672 1.152-6.72.768-2.048 1.856-3.797 3.264-5.248 1.408-1.493 3.093-2.645 5.056-3.456 2.005-.811 4.245-1.216 6.72-1.216Z" fill="#2B6B0C"/>
    <path id="a_3" d="M559.216 537.216c0-1.707.405-3.136 1.216-4.288a9.72 9.72 0 0 1 3.072-2.816 17.674 17.674 0 0 1 4.096-1.728 47.385 47.385 0 0 1 4.352-1.152 72.508 72.508 0 0 0 3.776-.896c1.109-.299 1.899-.661 2.368-1.088v-3.584c0-1.024-.107-2.069-.32-3.136a8.953 8.953 0 0 0-1.088-2.88 6.464 6.464 0 0 0-2.048-2.112c-.811-.555-1.835-.832-3.072-.832-.555 0-1.216.085-1.984.256a9.265 9.265 0 0 0-2.112.64 5.059 5.059 0 0 0-1.728 1.216c-.469.469-.704 1.067-.704 1.792 0 .469.043.917.128 1.344.128.427.192.875.192 1.344 0 1.579-.811 2.368-2.432 2.368-.725 0-1.28-.235-1.664-.704-.384-.512-.576-1.109-.576-1.792 0-1.067.427-2.048 1.28-2.944.853-.896 1.877-1.664 3.072-2.304a18.662 18.662 0 0 1 3.776-1.472c1.323-.341 2.432-.512 3.328-.512 3.371 0 5.803.832 7.296 2.496 1.493 1.664 2.24 4.139 2.24 7.424v16.192c0 .981.192 1.899.576 2.752.427.811 1.216 1.216 2.368 1.216.939 0 1.771-.299 2.496-.896-.256.853-.875 1.579-1.856 2.176-.939.555-1.835.832-2.688.832-.939 0-1.707-.171-2.304-.512a3.87 3.87 0 0 1-1.408-1.344c-.299-.555-.512-1.195-.64-1.92a19.804 19.804 0 0 1-.128-2.304v-11.712a185.86 185.86 0 0 1-4.672 1.344 23.467 23.467 0 0 0-4.672 1.728 11.236 11.236 0 0 0-3.584 2.88c-.981 1.152-1.472 2.688-1.472 4.608 0 1.792.555 3.2 1.664 4.224s2.56 1.536 4.352 1.536c1.28 0 2.539-.171 3.776-.512a11.593 11.593 0 0 0 3.456-1.6c-1.323 1.323-2.752 2.261-4.288 2.816-1.536.512-3.243.768-5.12.768-1.067 0-2.112-.128-3.136-.384a8.84 8.84 0 0 1-2.624-1.28 7 7 0 0 1-1.856-2.176c-.469-.896-.704-1.92-.704-3.072Z" fill="#2B6B0C"/>
    <path id="l_2" d="M545.6 544c1.28-.469 2.133-1.195 2.56-2.176.469-.981.704-2.112.704-3.392v-33.6a7.24 7.24 0 0 0-.128-1.28 4.764 4.764 0 0 0-.32-1.344c-.128-.469-.341-.853-.64-1.152-.299-.299-.704-.448-1.216-.448l5.888-4.288.064 42.112c0 1.28.213 2.411.64 3.392.469.981 1.344 1.707 2.624 2.176H545.6Z" fill="#2B6B0C"/>
    <path id="b_2" d="M519.976 496.32v37.376c0 1.323.32 2.581.96 3.776a12.137 12.137 0 0 0 2.56 3.136c1.024.896 2.176 1.6 3.456 2.112 1.323.512 2.624.768 3.904.768 1.877 0 3.456-.512 4.736-1.536a12.8 12.8 0 0 0 3.136-3.904 18.623 18.623 0 0 0 1.728-5.056c.341-1.792.512-3.435.512-4.928 0-1.579-.192-3.243-.576-4.992-.341-1.749-.917-3.349-1.728-4.8a10.78 10.78 0 0 0-3.2-3.584c-1.28-.939-2.88-1.408-4.8-1.408-1.877 0-3.477.363-4.8 1.088-1.28.725-2.56 1.707-3.84 2.944a11.598 11.598 0 0 1 4.224-4.032c1.792-.981 3.691-1.472 5.696-1.472 2.176 0 4.075.427 5.696 1.28a11.357 11.357 0 0 1 4.032 3.328c1.109 1.408 1.92 3.029 2.432 4.864.555 1.792.832 3.691.832 5.696 0 2.304-.32 4.523-.96 6.656-.597 2.091-1.515 3.947-2.752 5.568-1.237 1.579-2.795 2.859-4.672 3.84-1.877.939-4.075 1.408-6.592 1.408-1.92 0-3.84-.448-5.76-1.344-1.877-.939-3.52-2.027-4.928-3.264l-2.88 4.416v-39.168c0-.384-.021-.811-.064-1.28a4.86 4.86 0 0 0-.32-1.408 2.753 2.753 0 0 0-.768-1.152c-.299-.299-.704-.448-1.216-.448l5.952-4.48Z" fill="#2B6B0C"/>
    <g id="LOGO" fill="#D6FF7E">
      <path d="M519.969 496v37.197c0 1.317.321 2.569.963 3.758a12.07 12.07 0 0 0 6.033 5.223c1.326.51 2.631.765 3.915.765 1.883 0 3.466-.51 4.749-1.529a12.754 12.754 0 0 0 3.145-3.885 18.463 18.463 0 0 0 1.733-5.032c.343-1.784.514-3.418.514-4.905 0-1.571-.193-3.227-.578-4.968-.342-1.741-.92-3.333-1.733-4.777a10.757 10.757 0 0 0-3.209-3.567c-1.284-.934-2.888-1.401-4.814-1.401-1.882 0-3.487.361-4.813 1.083-1.284.722-2.568 1.698-3.851 2.93a11.582 11.582 0 0 1 4.236-4.013 11.784 11.784 0 0 1 5.712-1.465c2.182 0 4.086.425 5.712 1.274 1.626.807 2.974 1.911 4.044 3.312 1.112 1.401 1.925 3.015 2.439 4.841.556 1.783.834 3.673.834 5.669 0 2.292-.321 4.501-.963 6.624-.599 2.08-1.519 3.927-2.76 5.541-1.24 1.571-2.802 2.845-4.685 3.822-1.883.934-4.086 1.401-6.611 1.401-1.925 0-3.851-.446-5.776-1.338-1.883-.934-3.53-2.017-4.942-3.248l-2.888 4.395v-38.981c0-.382-.022-.807-.064-1.274a4.821 4.821 0 0 0-.321-1.401 2.738 2.738 0 0 0-.771-1.147c-.299-.297-.706-.445-1.219-.445l5.969-4.459Z"/>
      <path d="M520.2 535.465a14.71 14.71 0 0 0 4.429 6.115c2.011 1.613 4.364 2.42 7.06 2.42.899 0 1.866-1.213 2.978-1.341 1.113-.127 2.05-.697 2.991-1.079.984-.425 1.412-1.788 2.054-2.51.684-.764 1.54.514 1.54-.675 0-1.359-.513-2.463-1.54-3.312-1.027-.892-2.311-1.677-3.851-2.357a50.237 50.237 0 0 0-4.942-1.911 34.408 34.408 0 0 1-4.942-2.102c-1.498-.806-2.76-1.783-3.787-2.93-1.027-1.188-1.54-2.675-1.54-4.458 0-1.486.299-2.781.898-3.885.599-1.104 1.369-2.017 2.311-2.739.984-.765 2.118-1.338 3.401-1.72a13.662 13.662 0 0 1 3.916-.573c.641 0 1.454.063 2.438.191.985.127 1.99.318 3.017.573 1.07.212 2.097.955 3.081 1.21s.984 1.529 1.54 1.784l.77 4.458a9.729 9.729 0 0 0-1.733-3.121 9.928 9.928 0 0 0-2.631-2.356 12.28 12.28 0 0 0-3.273-1.593 10.989 10.989 0 0 0-3.466-.573c-.813 0-1.69.127-2.632.382a9.396 9.396 0 0 0-2.631 1.019 6.43 6.43 0 0 0-1.926 1.784c-.513.679-.77 1.507-.77 2.484 0 1.528.514 2.802 1.541 3.821 1.027.977 2.289 1.826 3.786 2.548a45.464 45.464 0 0 0 5.007 1.975 35.15 35.15 0 0 1 4.942 2.038c1.54.764 2.824 1.698 3.851 2.802 1.026 1.104.513 1.508.513 3.249 0 1.656.107.277-.578 1.423-.641 1.104-1.668 1.842-2.31 2.564-1.07.679-1.712 2.212-3.081 2.51-1.369.297-3.53 1.465-4.942 1.465-1.883 0-3.53-.195-5.712-.535-2.14-.382-3.98-2.888-5.777-3.44v-3.605Z"/>
    </g>
  </g>
</svg>
